{
  "accessors": [
    {
      "bufferView": 2,
      "componentType": 5126,
      "count": 108,
      "max": [
        12.756677627563477,
        -64.49968719482422,
        140.88909912109375
      ],
      "min": [
        -12.756721496582031,
        -79.685791015625,
        132.51205444335938
      ],
      "type": "VEC3"
    },
    {
      "bufferView": 2,
      "byteOffset": 1296,
      "componentType": 5126,
      "count": 108,
      "max": [
        0.9347510933876038,
        -0.24476657807826996,
        0.8985471725463867
      ],
      "min": [
        -0.9347510933876038,
        -0.9471045136451721,
        -0.3987339437007904
      ],
      "type": "VEC3"
    },
    {
      "bufferView": 1,
      "componentType": 5126,
      "count": 108,
      "max": [
        0.48851001262664795,
        2.9163100719451904
      ],
      "min": [
        0.011488020420074463,
        2.82000994682312
      ],
      "type": "VEC2"
    },
    {
      "bufferView": 0,
      "componentType": 5125,
      "count": 504,
      "type": "SCALAR"
    },
    {
      "bufferView": 2,
      "byteOffset": 2592,
      "componentType": 5126,
      "count": 1928,
      "max": [
        54.91660690307617,
        220.9290313720703,
        140.5050048828125
      ],
      "min": [
        -54.916805267333984,
        -48.76980972290039,
        -3.018738269805908
      ],
      "type": "VEC3"
    },
    {
      "bufferView": 2,
      "byteOffset": 25728,
      "componentType": 5126,
      "count": 1928,
      "max": [
        0.9968396425247192,
        0.9999473690986633,
        0.9989340901374817
      ],
      "min": [
        -0.9968408346176147,
        -0.9998913407325745,
        -0.9999912977218628
      ],
      "type": "VEC3"
    },
    {
      "bufferView": 1,
      "byteOffset": 864,
      "componentType": 5126,
      "count": 1928,
      "max": [
        1.0,
        0.9960939884185791
      ],
      "min": [
        0.0,
        0.0039059999398887157
      ],
      "type": "VEC2"
    },
    {
      "bufferView": 0,
      "byteOffset": 2016,
      "componentType": 5125,
      "count": 8706,
      "type": "SCALAR"
    },
    {
      "bufferView": 2,
      "byteOffset": 48864,
      "componentType": 5126,
      "count": 1838,
      "max": [
        123.71802520751953,
        48.096927642822266,
        170.7830352783203
      ],
      "min": [
        -123.7179946899414,
        -90.66221618652344,
        64.65216064453125
      ],
      "type": "VEC3"
    },
    {
      "bufferView": 2,
      "byteOffset": 70920,
      "componentType": 5126,
      "count": 1838,
      "max": [
        0.9996101260185242,
        0.9863709211349487,
        0.999950110912323
      ],
      "min": [
        -0.999610185623169,
        -0.9978559017181396,
        -0.9999998807907104
      ],
      "type": "VEC3"
    },
    {
      "bufferView": 1,
      "byteOffset": 16288,
      "componentType": 5126,
      "count": 1838,
      "max": [
        1.0,
        1.9924099445343018
      ],
      "min": [
        0.0,
        1.003909945487976
      ],
      "type": "VEC2"
    },
    {
      "bufferView": 0,
      "byteOffset": 36840,
      "componentType": 5125,
      "count": 8652,
      "type": "SCALAR"
    },
    {
      "bufferView": 2,
      "byteOffset": 92976,
      "componentType": 5126,
      "count": 138,
      "max": [
        12.990589141845703,
        232.12603759765625,
        68.83411407470703
      ],
      "min": [
        -12.987910270690918,
        209.49205017089844,
        10.106088638305664
      ],
      "type": "VEC3"
    },
    {
      "bufferView": 2,
      "byteOffset": 94632,
      "componentType": 5126,
      "count": 138,
      "max": [
        0.9990332126617432,
        0.9990338683128357,
        0.9999945759773254
      ],
      "min": [
        -0.9990332722663879,
        -0.9990335702896118,
        -1.000000238418579
      ],
      "type": "VEC3"
    },
    {
      "bufferView": 1,
      "byteOffset": 30992,
      "componentType": 5126,
      "count": 138,
      "max": [
        0.9540690183639526,
        1.830049991607666
      ],
      "min": [
        0.012900000438094139,
        0.06342100352048874
      ],
      "type": "VEC2"
    },
    {
      "bufferView": 0,
      "byteOffset": 71448,
      "componentType": 5125,
      "count": 456,
      "type": "SCALAR"
    },
    {
      "bufferView": 2,
      "byteOffset": 96288,
      "componentType": 5126,
      "count": 119,
      "max": [
        14.364089965820313,
        235.37205505371094,
        70.79501342773438
      ],
      "min": [
        -14.364110946655273,
        206.34603881835938,
        8.218560218811035
      ],
      "type": "VEC3"
    },
    {
      "bufferView": 2,
      "byteOffset": 97716,
      "componentType": 5126,
      "count": 119,
      "max": [
        0.9993060231208801,
        0.9992958903312683,
        1.000000238418579
      ],
      "min": [
        -0.9993057250976563,
        -0.9992961883544922,
        -1.000000238418579
      ],
      "type": "VEC3"
    },
    {
      "bufferView": 1,
      "byteOffset": 32096,
      "componentType": 5126,
      "count": 119,
      "max": [
        0.9979000091552734,
        0.9805070161819458
      ],
      "min": [
        0.0019389999797567725,
        0.019493000581860542
      ],
      "type": "VEC2"
    },
    {
      "bufferView": 0,
      "byteOffset": 73272,
      "componentType": 5125,
      "count": 648,
      "type": "SCALAR"
    },
    {
      "bufferView": 3,
      "componentType": 5126,
      "count": 1,
      "max": [
        1.0,
        0.0,
        0.0,
        0.0,
        0.0,
        1.0,
        0.0,
        0.0,
        0.0,
        0.0,
        1.0,
        0.0,
        0.0,
        0.0,
        0.0,
        1.0
      ],
      "min": [
        1.0,
        0.0,
        0.0,
        0.0,
        0.0,
        1.0,
        0.0,
        0.0,
        0.0,
        0.0,
        1.0,
        0.0,
        0.0,
        0.0,
        0.0,
        1.0
      ],
      "type": "MAT4"
    }
  ],
  "asset": {
    "extras": {
      "author": "garbodor1234 (https://sketchfab.com/garbodor1234)",
      "license": "CC-BY-4.0 (http://creativecommons.org/licenses/by/4.0/)",
      "source": "https://sketchfab.com/3d-models/3ds-pokemon-x-y-006-charizard-1-8045cbb2ea804c7fb18bb72ea9ea9a87",
      "title": "3DS - Pokemon X Y - 006 Charizard (1)"
    },
    "generator": "Sketchfab-12.67.0",
    "version": "2.0"
  },
  "bufferViews": [
    {
      "buffer": 0,
      "byteLength": 75864,
      "name": "floatBufferViews",
      "target": 34963
    },
    {
      "buffer": 0,
      "byteLength": 33048,
      "byteOffset": 75864,
      "byteStride": 8,
      "name": "floatBufferViews",
      "target": 34962
    },
    {
      "buffer": 0,
      "byteLength": 99144,
      "byteOffset": 108912,
      "byteStride": 12,
      "name": "floatBufferViews",
      "target": 34962
    },
    {
      "buffer": 0,
      "byteLength": 64,
      "byteOffset": 208056,
      "name": "floatBufferViews"
    }
  ],
  "buffers": [
    {
      "byteLength": 208120,
      "uri": "scene.bin"
    }
  ],
  "images": [
    {
      "uri": "textures/Material_12_baseColor.png"
    },
    {
      "uri": "textures/Material_13_baseColor.png"
    },
    {
      "uri": "textures/Material_14_baseColor.png"
    },
    {
      "uri": "textures/Material_15_baseColor.png"
    },
    {
      "uri": "textures/Material_16_baseColor.png"
    }
  ],
  "materials": [
    {
      "doubleSided": true,
      "name": "Material_12",
      "pbrMetallicRoughness": {
        "baseColorTexture": {
          "index": 0
        },
        "metallicFactor": 0.0,
        "roughnessFactor": 0.6
      }
    },
    {
      "doubleSided": true,
      "name": "Material_13",
      "pbrMetallicRoughness": {
        "baseColorTexture": {
          "index": 1
        },
        "metallicFactor": 0.0,
        "roughnessFactor": 0.6
      }
    },
    {
      "doubleSided": true,
      "name": "Material_14",
      "pbrMetallicRoughness": {
        "baseColorTexture": {
          "index": 2
        },
        "metallicFactor": 0.0,
        "roughnessFactor": 0.6
      }
    },
    {
      "doubleSided": true,
      "name": "Material_15",
      "pbrMetallicRoughness": {
        "baseColorTexture": {
          "index": 3
        },
        "metallicFactor": 0.0,
        "roughnessFactor": 0.6
      }
    },
    {
      "doubleSided": true,
      "name": "Material_16",
      "pbrMetallicRoughness": {
        "baseColorTexture": {
          "index": 4
        },
        "metallicFactor": 0.0,
        "roughnessFactor": 0.6
      }
    }
  ],
  "meshes": [
    {
      "name": "Object_0",
      "primitives": [
        {
          "attributes": {
            "NORMAL": 1,
            "POSITION": 0,
            "TEXCOORD_0": 2
          },
          "indices": 3,
          "material": 0,
          "mode": 4
        }
      ]
    },
    {
      "name": "Object_1",
      "primitives": [
        {
          "attributes": {
            "NORMAL": 5,
            "POSITION": 4,
            "TEXCOORD_0": 6
          },
          "indices": 7,
          "material": 1,
          "mode": 4
        }
      ]
    },
    {
      "name": "Object_2",
      "primitives": [
        {
          "attributes": {
            "NORMAL": 9,
            "POSITION": 8,
            "TEXCOORD_0": 10
          },
          "indices": 11,
          "material": 2,
          "mode": 4
        }
      ]
    },
    {
      "name": "Object_3",
      "primitives": [
        {
          "attributes": {
            "NORMAL": 13,
            "POSITION": 12,
            "TEXCOORD_0": 14
          },
          "indices": 15,
          "material": 3,
          "mode": 4
        }
      ]
    },
    {
      "name": "Object_4",
      "primitives": [
        {
          "attributes": {
            "NORMAL": 17,
            "POSITION": 16,
            "TEXCOORD_0": 18
          },
          "indices": 19,
          "material": 4,
          "mode": 4
        }
      ]
    }
  ],
  "nodes": [
    {
      "children": [
        1
      ],
      "matrix": [
        1.0,
        0.0,
        0.0,
        0.0,
        0.0,
        2.220446049250313e-16,
        -1.0,
        0.0,
        0.0,
        1.0,
        2.220446049250313e-16,
        0.0,
        0.0,
        0.0,
        0.0,
        1.0
      ],
      "name": "Sketchfab_model"
    },
    {
      "children": [
        2
      ],
      "matrix": [
        1.0,
        0.0,
        0.0,
        0.0,
        0.0,
        0.0,
        1.0,
        0.0,
        0.0,
        -1.0,
        0.0,
        0.0,
        0.0,
        0.0,
        0.0,
        1.0
      ],
      "name": "Charizard.FBX"
    },
    {
      "children": [
        3
      ],
      "name": "RootNode"
    },
    {
      "children": [
        4,
        5
      ],
      "name": "Object_3"
    },
    {
      "name": "_rootJoint"
    },
    {
      "children": [
        6,
        7,
        8,
        9,
        10
      ],
      "matrix": [
        1.0,
        -1.2325952558871507e-32,
        0.0,
        0.0,
        7.54746917383206e-49,
        6.123233995736766e-17,
        -1.0,
        0.0,
        1.2325952558871507e-32,
        1.0,
        6.123233995736766e-17,
        0.0,
        0.0,
        0.0,
        0.0,
        1.0
      ],
      "name": "Object_5"
    },
    {
      "mesh": 0,
      "name": "Object_6"
    },
    {
      "mesh": 1,
      "name": "Object_7"
    },
    {
      "mesh": 2,
      "name": "Object_8"
    },
    {
      "mesh": 3,
      "name": "Object_9"
    },
    {
      "mesh": 4,
      "name": "Object_10"
    }
  ],
  "samplers": [
    {
      "magFilter": 9729,
      "minFilter": 9987,
      "wrapS": 10497,
      "wrapT": 10497
    }
  ],
  "scene": 0,
  "scenes": [
    {
      "name": "Sketchfab_Scene",
      "nodes": [
        0
      ]
    }
  ],
  "skins": [
    {
      "inverseBindMatrices": 20,
      "joints": [
        4
      ],
      "skeleton": 4
    }
  ],
  "textures": [
    {
      "sampler": 0,
      "source": 0
    },
    {
      "sampler": 0,
      "source": 1
    },
    {
      "sampler": 0,
      "source": 2
    },
    {
      "sampler": 0,
      "source": 3
    },
    {
      "sampler": 0,
      "source": 4
    }
  ]
}
